<?xml version="1.0" encoding="UTF-8"?>
<svg xmlns="http://www.w3.org/2000/svg" width="369.65" height="207.44" xmlns:xlink="http://www.w3.org/1999/xlink" viewBox="0 0 369.65 207.44">
  <defs>
    <radialGradient id="radial-gradient" cx="196.3" cy="46.84" fx="196.3" fy="46.84" r="8.23" gradientTransform="translate(487.9 74.12) rotate(-158.46) scale(1 -1)" gradientUnits="userSpaceOnUse">
      <stop offset="0" stop-color="#ff5252"/>
      <stop offset="1" stop-color="#ff5252" stop-opacity="0"/>
    </radialGradient>
  </defs>
  <g style="isolation: isolate;">
    <g id="Layer_2" data-name="Layer 2">
      <g id="OBJECTS">
        <g>
          <path d="m137.43,151.16c-12.73,0-25.49-1.81-38.14-5.42-17.9-5.97-36.29-13.05-47.61-28.2-.33-.44-.24-1.07.2-1.4.44-.33,1.07-.24,1.4.2,10.97,14.69,29.03,21.64,46.59,27.49,20.71,5.92,41.75,6.92,62.5,2.97,34.31-4.58,62.11-17.61,80.45-37.69,1.14-1.14,3.39-2.33,5.74-2.33.55,0,1,.45,1,1s-.45,1-1,1c-1.7,0-3.44.86-4.29,1.71-18.63,20.4-46.85,33.65-81.57,38.28-8.38,1.6-16.82,2.39-25.27,2.39Z" style="fill: #263238; stroke-width: 0px;"/>
          <g>
            <g>
              <path d="m288.51,180.77c-.83-4.12-1.35-8.44-2.95-12.35-.45-1.09-2.29-1.08-2.22.3.39,7.69,2.69,15.22,3.06,22.95.11,2.33,3.57,2.35,3.63,0,.09-3.7-.79-7.29-1.52-10.9Z" style="fill: #546e7a; stroke-width: 0px;"/>
              <path d="m342.81,180.38c-1.21-6.5-4.63-12.67-6.54-19-.49-1.63-3.23-1.4-3.07.42.31,3.45,1.57,7.04,2.74,10.29,1.17,3.24,2.08,6.59,3.47,9.74.91,2.05,3.76.5,3.4-1.43Z" style="fill: #546e7a; stroke-width: 0px;"/>
            </g>
            <g>
              <path d="m194.8,178.64c-.16-4.2.03-8.55-.91-12.67-.26-1.15-2.09-1.43-2.24-.06-.86,7.65.2,15.45-.68,23.14-.26,2.32,3.15,2.89,3.58.58.68-3.63.39-7.32.26-11Z" style="fill: #546e7a; stroke-width: 0px;"/>
              <path d="m249.39,180.41c-.14-6.61-2.53-13.25-3.39-19.81-.22-1.69-2.96-1.9-3.1-.08-.25,3.46.41,7.2,1.04,10.59.63,3.39.99,6.84,1.85,10.17.56,2.17,3.63,1.1,3.59-.87Z" style="fill: #546e7a; stroke-width: 0px;"/>
            </g>
            <g>
              <path d="m279.31,173.58c-.49-1.56-6.44-1.74-7.95-1.18-16.01,5.98-33.73,10.36-59.27,14.65-26.66,4.48-40.08,1.08-47.86-9.63-.52-.72-5.34-.91-6.23-.91h0c-2.29,0-3.66,2.6-2.32,4.47,6.55,9.1,18.39,13.68,35.42,13.68,6.55,0,13.86-.68,21.92-2.03,25.84-4.33,43.84-8.78,60.17-14.87,1.44-.54,6.58-2.72,6.11-4.18Z" style="fill: #90a4ae; stroke-width: 0px;"/>
              <path d="m279.59,174.2c-.49-1.56-2.18-2.36-3.69-1.8-16.01,5.98-33.73,10.36-59.27,14.65-26.66,4.48-44.05,1.3-51.83-9.4-.52-.72-1.37-1.13-2.26-1.13h0c-2.29,0-3.66,2.6-2.32,4.47,6.55,9.1,18.39,13.68,35.42,13.68,6.55,0,13.86-.68,21.92-2.03,25.84-4.33,43.84-8.78,60.17-14.87,1.44-.54,2.31-2.1,1.85-3.56Z" style="fill: #546e7a; stroke-width: 0px;"/>
            </g>
            <path d="m281.18,165.04c-.05-4.01,4.28-19.62,5.37-23.46,3.18-11.2,6.51-23.08,20.52-27.01,7.89-2.21,16.34-1.6,24.45-2.3,3.47-.3,7.53-.29,11.36-.61,1.26-.11,1.93,1.23,1.02,2-10.87,9.14-11.23,30.86-10.5,40.6l-52.22,10.78Z" style="fill: #696153; stroke-width: 0px;"/>
            <path d="m312.76,157.74c-.04-3.49,3.26-17.08,4.09-20.43,2.42-9.76,4.96-20.1,15.61-23.53,6-1.93,12.43-1.39,18.61-2,2.64-.26,5.73-.25,8.64-.53.95-.09,1.47,1.07.77,1.74-8.27,7.96-8.55,26.88-7.99,35.36l-39.74,9.39Z" style="fill: #c4b69c; stroke-width: 0px;"/>
            <path d="m309.96,161.31l-.04-3.54c-.04-3.86,3.18-17.16,4.17-21.14,2.53-10.19,5.37-21.65,17.5-25.54,4.46-1.43,9.02-1.61,13.43-1.79,2-.08,3.89-.15,5.76-.34,1.38-.14,2.87-.2,4.31-.27,1.44-.06,2.94-.13,4.34-.27,1.75-.16,3.28.81,3.91,2.38.59,1.47.24,3.12-.9,4.22-6.46,6.22-7.88,21.73-7.13,33.13l.16,2.39-45.51,10.76Zm45.76-46.97c-.13,0-.25.01-.38.02-1.43.06-2.78.12-4.01.25-2.04.2-4.1.28-6.1.36-4.21.16-8.19.32-11.92,1.52-9.13,2.93-11.35,11.91-13.71,21.43-1.4,5.63-2.85,12.05-3.57,16.15l33.5-7.92c-.28-7.32.01-22.47,6.18-31.8Z" style="fill: #f4511e; stroke-width: 0px;"/>
            <path d="m184.14,163.25c-20.28,0-33.23-6.48-38.61-19.36-3.27-7.83-1.55-18.13,4.49-26.88,5.68-8.23,13.77-13,21.61-12.71,1.56.05,2.79,1.36,2.73,2.92-.05,1.56-1.37,2.78-2.92,2.73-5.9-.2-12.18,3.64-16.76,10.27-4.88,7.07-6.42,15.5-3.92,21.48,5.97,14.3,24.27,18.99,54.37,13.93,25.53-4.28,43.26-8.66,59.27-14.65,1.46-.54,3.09.2,3.64,1.66.55,1.46-.2,3.09-1.66,3.64-16.36,6.12-34.4,10.58-60.31,14.93-8.07,1.35-15.38,2.03-21.92,2.03Z" style="fill: #f4511e; stroke-width: 0px;"/>
            <g>
              <g>
                <path d="m214.98,39.05c-.83,9.62-1.45,21.39,5.86,28.67,3.95,3.93,13.19,10.23,19.13,8.1,3.64-1.31,6.63-6.7,8.66-9.73,1.5-2.24,3.59-4.83,4.23-7.48-2.76-1.42-5.96-1.14-8.88-1.75-3.15-.67-5.7-2.33-8.17-4.32-2.73-2.19-4.47-4.44-5.98-7.57-1.12-2.31-1.6-5.1-2.9-7.28l-11.95,1.37Z" style="fill: #e53935; stroke-width: 0px;"/>
                <g>
                  <path d="m214.18,32.16c-2.13-3.54-1.51-11.82,1.86-13.61,2.06-1.09,5.24-.99,7.37.74,1.77,1.44,1.79,2.89,1.77,5.01,1.52.8,3.52.01,3.1,2.89-.15,1.05-1.44,4.1-2.37,3.63l-11.72,1.34Z" style="fill: #c62828; stroke-width: 0px;"/>
                  <g>
                    <path d="m215.3,29.28c3.09-.12,6.24-.39,9.32-.8,2.15-.28,4.14,1.22,4.41,3.37.2,1.58.49,3.19.86,4.82.52,2.26-1.06,4.47-3.37,4.76l-10.34,1.27c-2.23.27-4.24-1.37-4.42-3.61-.16-1.94-.24-3.89-.24-5.84,0-2.12,1.65-3.89,3.77-3.97Z" style="fill: #cfd8dc; stroke-width: 0px;"/>
                    <path d="m229.94,38.16c.08-.48.06-.97-.05-1.48-.37-1.63-.66-3.24-.86-4.82-.07-.5-.23-.98-.46-1.4-.76-1.37-2.31-2.2-3.95-1.98-3.07.41-6.23.68-9.32.8-1.93.07-3.48,1.54-3.74,3.41-.03.18-.04.37-.04.57.01,1.96.09,3.9.25,5.84.04.47.15.91.34,1.31.5,1.13,1.52,1.96,2.71,2.23.43.1.9.12,1.37.07l10.34-1.27c.41-.06.8-.16,1.16-.33,0,0,.01,0,.03-.01,1.19-.54,2.03-1.65,2.23-2.93Z" style="fill: #cfd8dc; stroke-width: 0px;"/>
                    <path d="m229.94,38.16c.08-.48.06-.97-.05-1.48-.37-1.63-.66-3.24-.86-4.82-.07-.5-.23-.98-.46-1.4-.78-.38-1.68-.53-2.6-.41-3.63.47-7.36.81-11.02.95-1.37.05-2.58.7-3.39,1.69-.03.18-.04.37-.04.57.01,1.96.09,3.9.25,5.84.04.47.15.91.34,1.31.5,1.13,1.52,1.96,2.71,2.23.2,0,.41,0,.61-.03l12.22-1.5s.02,0,.03,0c0,0,.01,0,.03-.01,1.19-.54,2.03-1.65,2.23-2.93Z" style="fill: #eceff1; stroke-width: 0px;"/>
                    <path d="m229.81,38.68c-.78-1.29-2.29-2.07-3.89-1.86-3.07.4-6.23.68-9.32.8-2.09.08-3.73,1.79-3.78,3.87.83.88,2.05,1.38,3.35,1.21l10.34-1.27c1.61-.19,2.85-1.33,3.28-2.75Z" style="fill: #fafafa; stroke-width: 0px;"/>
                  </g>
                </g>
              </g>
              <g>
                <path d="m356.21,92.79c-5.97,7.6-13.58,16.63-23.91,16.96-5.59.17-16.66-1.55-19.56-7.17-1.77-3.45-.27-9.43.32-13.04.44-2.67.68-5.99,2.02-8.36,2.99.85,5.15,3.25,7.71,4.79,2.76,1.67,5.78,2.2,8.94,2.44,3.5.27,6.31-.19,9.56-1.45,2.4-.93,4.66-2.64,7.1-3.34l7.82,9.18Z" style="fill: #c62828; stroke-width: 0px;"/>
                <g>
                  <path d="m361.52,88.3c3.98-1.13,9.2-7.61,7.95-11.23-.76-2.21-3.16-4.31-5.9-4.5-2.28-.16-3.29.89-4.72,2.45-1.66-.45-2.59-2.4-4.25,0-.6.87-1.75,3.98-.75,4.28l7.67,9Z" style="fill: #c62828; stroke-width: 0px;"/>
                  <g>
                    <path d="m362.66,85.43c-2.19-2.2-4.31-4.56-6.28-6.96-1.38-1.68-3.87-1.94-5.54-.55-1.22,1.02-2.54,2-3.93,2.93-1.93,1.3-2.28,4-.79,5.78l6.7,8c1.45,1.73,4.04,1.9,5.71.38,1.44-1.31,2.84-2.68,4.18-4.11,1.46-1.55,1.45-3.98-.05-5.49Z" style="fill: #cfd8dc; stroke-width: 0px;"/>
                    <path d="m345.87,81.9c.27-.4.62-.76,1.05-1.05,1.39-.94,2.7-1.92,3.93-2.94.39-.32.84-.56,1.29-.7,1.49-.48,3.19-.03,4.25,1.26,1.97,2.4,4.09,4.76,6.28,6.96,1.36,1.37,1.5,3.51.41,5.05-.11.15-.23.3-.36.44-1.35,1.42-2.73,2.79-4.18,4.1-.35.32-.74.56-1.14.73-1.14.48-2.45.4-3.51-.22-.39-.22-.74-.52-1.05-.89l-6.71-8.01c-.26-.32-.48-.66-.62-1.04,0,0,0-.01-.01-.03-.5-1.21-.35-2.6.37-3.67Z" style="fill: #cfd8dc; stroke-width: 0px;"/>
                    <path d="m345.87,81.9c.27-.4.62-.76,1.05-1.05,1.39-.94,2.7-1.92,3.93-2.94.39-.32.84-.56,1.29-.7.83.26,1.59.76,2.19,1.48,2.34,2.83,4.84,5.63,7.42,8.23.97.97,1.41,2.28,1.33,3.55-.11.15-.23.3-.36.44-1.35,1.42-2.73,2.79-4.18,4.1-.35.32-.74.56-1.14.73-1.14.48-2.45.4-3.51-.22-.15-.14-.29-.28-.42-.44l-7.93-9.46s-.01-.02-.02-.03c0,0,0-.01-.01-.03-.5-1.21-.35-2.6.37-3.67Z" style="fill: #eceff1; stroke-width: 0px;"/>
                    <path d="m345.6,82.37c1.45-.41,3.09.05,4.12,1.3,1.98,2.4,4.09,4.76,6.28,6.96,1.48,1.49,1.51,3.86.11,5.42-1.21.08-2.44-.39-3.29-1.41l-6.71-8.01c-1.04-1.24-1.18-2.92-.52-4.26Z" style="fill: #fafafa; stroke-width: 0px;"/>
                  </g>
                </g>
              </g>
              <g>
                <ellipse cx="254.9" cy="138.06" rx="21.02" ry="49.59" transform="translate(32.91 324.49) rotate(-68.46)" style="fill: #c62828; stroke-width: 0px;"/>
                <g>
                  <path d="m287.89,53.63h0c26.76,10.56,39.9,40.82,29.33,67.58l-12.07,30.59c-.73,1.86-2.8,2.82-4.69,2.19l-35.7-11.94c-5.13-1.72-8.97-6.04-10.06-11.34l-1.28-6.24-3.93,3.15c-4.54,3.64-10.76,4.36-16.01,1.87l-23.37-11.1c-1.79-.85-2.61-2.94-1.89-4.78l12.09-30.64c10.56-26.76,40.82-39.9,67.58-29.33Z" style="fill: #e53935; stroke-width: 0px;"/>
                  <path d="m249.96,117.31c14.11,6.23,28.57,13.26,43.36,17.77,9.91-10.01,17.55-30.46,15.51-37.62-6.49,8.04-18.78-.7-23.7-5.07,0,0-11.41,5.62-24.07.14-6.43-3.86-11.95-10.02-7.06-17.37-3.32.02-5.96-1.69-7.58-4.32-3.08-5.01-.33-12.54,4.79-15.33l-.4,2.7.4-2.7c.24-.13.49-.27.74-.38-.25.11-.5.24-.74.38l.38-2.59c11.38-3.98,24.19-4.06,36.28.71h0c26.76,10.56,39.9,40.82,29.33,67.58l-12.07,30.59c-.73,1.86-2.8,2.82-4.69,2.19l-35.7-11.94c-5.13-1.72-8.97-6.04-10.06-11.34l-1.28-6.24-3.93,3.15c-4.54,3.64-10.76,4.36-16.01,1.87l-23.37-11.1c-1.79-.85-2.61-2.94-1.89-4.78l4.22-10.69c12.63,4.49,25.16,9.22,37.53,14.39Z" style="fill: #c62828; stroke-width: 0px;"/>
                  <g>
                    <path d="m203.05,111.57c-1.79,4.54.26,9.74,4.67,11.83l23.37,11.1c5.99,2.85,13,2.59,18.75-.49,1.9,5.87,6.35,10.65,12.13,12.93.34.13.68.26,1.03.37l35.7,11.94c4.69,1.57,9.8-.8,11.62-5.41.31-.8.43-1.63.37-2.42-.15-2.07-1.44-3.96-3.5-4.77-2.3-.91-4.84-.17-6.32,1.63l-34.35-11.49c-3.25-1.08-5.69-3.84-6.38-7.2l-3.11-15.13-11.01,8.83c-2.86,2.29-6.85,2.76-10.16,1.19l-22.1-10.5c.16-2.34-1.2-4.63-3.5-5.54-2.05-.81-4.3-.31-5.81,1.1-.59.55-1.07,1.23-1.39,2.03Z" style="fill: #cfd8dc; stroke-width: 0px;"/>
                    <path d="m204.44,109.54c-.11,3.6,1.89,7.09,5.31,8.72l23.37,11.1c5.99,2.85,13,2.59,18.75-.49,1.9,5.87,6.35,10.65,12.13,12.93.34.13.68.26,1.03.37l35.7,11.94c3.65,1.22,7.55.06,9.96-2.69-.05-.65-.21-1.28-.47-1.88-.57-1.28-1.62-2.34-3.03-2.9-.87-.34-1.78-.45-2.64-.35-4.43.49-8.9.24-13.12-1.17l-24.91-8.33c-3.25-1.08-5.69-3.84-6.38-7.2l-3.11-15.13-11.01,8.83c-2.86,2.29-6.85,2.76-10.16,1.19l-14.96-7.1c-3.31-1.58-6.03-4.1-8.21-7.06-.59-.81-1.42-1.47-2.43-1.87-1.41-.55-2.9-.49-4.19.04-.6.25-1.15.61-1.62,1.05Z" style="fill: #eceff1; stroke-width: 0px;"/>
                    <path d="m206.06,108.49c.62,2.67,2.42,5.03,5.06,6.29l23.37,11.1c5.99,2.85,13,2.59,18.75-.49,1.9,5.87,6.35,10.65,12.13,12.93.34.13.68.26,1.03.37l35.7,11.94c2.83.94,5.8.46,8.12-1.09-.57-1.28-1.62-2.34-3.03-2.9-.87-.34-1.78-.45-2.64-.35-4.43.49-8.9.24-13.12-1.17l-24.91-8.33c-3.25-1.08-5.69-3.84-6.38-7.2l-3.11-15.13-11.01,8.83c-2.86,2.29-6.85,2.76-10.16,1.19l-14.96-7.1c-3.31-1.58-6.03-4.1-8.21-7.06-.59-.81-1.42-1.47-2.43-1.87-1.41-.55-2.9-.49-4.19.04Z" style="fill: #fafafa; stroke-width: 0px;"/>
                  </g>
                  <g>
                    <rect x="207.98" y="108.79" width="108.51" height="18.11" rx="4.57" ry="4.57" transform="translate(462.91 323.72) rotate(-158.46)" style="fill: #212121; stroke-width: 0px;"/>
                    <path d="m245.68,100.55c.54-1.37,2.03-2.07,3.42-1.66l13.54,31.19c-.36,0-.73-.06-1.08-.2l-7.54-2.98-9.81-22.61,1.48-3.75Z" style="fill: #fb8c00; stroke-width: 0px;"/>
                    <polygon points="244.2 104.29 254.01 126.9 250.87 125.67 242.96 107.43 244.2 104.29" style="fill: #ffe0b2; stroke-width: 0px;"/>
                    <path d="m250.87,125.67l-10.44-4.12c-1.45-.57-2.17-2.22-1.59-3.67l4.12-10.44,7.91,18.23Z" style="fill: #f57c00; stroke-width: 0px;"/>
                    <path d="m249.34,98.95l4.89,1.93,11.42,26.3-.43,1.1c-.43,1.1-1.48,1.77-2.59,1.79l-13.54-31.19c.08.02.17.04.25.07Z" style="fill: #ffe0b2; stroke-width: 0px;"/>
                    <path d="m270.47,107.29c1.45.57,2.17,2.22,1.59,3.67l-6.4,16.23-11.42-26.3,16.23,6.4Z" style="fill: #ffb74d; stroke-width: 0px;"/>
                    <rect x="246.2" y="106.5" width="18.5" height="15.84" rx="4.59" ry="4.59" transform="translate(451.06 314.62) rotate(-158.46)" style="fill: #212121; stroke-width: 0px;"/>
                  </g>
                </g>
              </g>
              <g>
                <path d="m329.51,42.82c1.08-4.54,1.31-8.7-.55-12.98,9.46,6.57,4.99,19.69,11.64,27.99,1.31,1.1,3.36,1.54,5.07,2.06-4.92.76-8.68-4.39-11.19-8.21-.45,6-3.66,11.28-9.57,11.77l-8.07-5.01c5.87-3.43,10.57-8.83,12.67-15.62Z" style="fill: #c62828; stroke-width: 0px;"/>
                <path d="m295,0c15.58-.16,33.68,5.47,42.36,19.13,4.84,7.63,7.47,18.19,6.83,27.24-.29,4.09-1.62,11.2,3.54,12.87-.71.33-1.39.54-2.05.64-1.71-.52-3.76-.96-5.07-2.06-6.65-8.3-2.18-21.42-11.64-27.99,1.86,4.28,1.63,8.44.55,12.98-2.1,6.8-6.8,12.2-12.67,15.62l-56.65-35.18C267.88,11.12,279.64.16,295,0Z" style="fill: #e53935; stroke-width: 0px;"/>
                <path d="m256.56,35.73c-1.83-2.66-1.2-7.31.32-10.45,2.7-5.57,8.9-8.01,14.79-8.42,10.84-.76,22.44,4.62,31.53,9.9,7.82,4.55,15.03,9.58,21.2,16.23,4.18,4.51,8.22,10.51,6.44,16.89-1.8,6.47-6.71,9.25-12.91,8.52l-61.38-32.67Z" style="fill: #efebe9; stroke-width: 0px;"/>
                <path d="m257.73,38.72c-1.88-2.1-1.69-5.45-.57-7.63,2-3.85,7.43-5.13,12.75-4.94,9.79.34,20.77,5.24,29.46,9.85,7.48,3.97,14.44,8.25,20.6,13.63,4.17,3.65,8.33,8.37,7.25,12.9-1.1,4.59-5.33,6.22-11.03,5.17l-58.47-28.98Z" style="fill: #d7ccc8; stroke-width: 0px;"/>
                <g>
                  <path d="m313.72,72.04c-1.95,1.36-3.31-.6-4.91-1.94,1.24,4.03-.82,7.47-3.87,9.81-4.76,3.08-12.23,2.26-15.08-3.11-2.92,3.81-8.55,3.71-12.23,2.26-4.29-1.69-10.93-6.44-7.28-12.09-5.62,3.45-10.54-2.03-13.87-6.18-2.71-3.91-2-9.3,2.27-11.15-5.15-1.32-3.1-8.31-1.03-11.75,1.3-1.65,2.67-3.47,4.17-5.21,2.5-.79,5.13-1.31,7.79-1.55,3.64-.32,7.32-.15,10.75.54,12.83,2.56,29.22,9.83,37.89,21.36.9,1.19,1.72,2.44,2.44,3.73.45,6.05-1.81,12.17-7.04,15.27Z" style="fill: #fafafa; stroke-width: 0px;"/>
                  <path d="m249.4,64.37c1.97,2.19,6.99,2.05,7.49,4.37,3.34,7.7,9.01,14.9,17.22,17.43,5.15,1.32,11.15,2.27,14.8-3.37.15,5.02,6.28,7.44,10.44,7.67,8.94.69,15.03-7.54,14.86-16.11,2.82,1.82,6.38,1.81,8.2-1.02,1.3-2.37,1.73-4.9,1.64-7.45.45,2.46.54,4.96.1,7.26-.45,2.33-1.66,3.94-3.98,4.32-.39.06-5.18.89-4.93,0-1.74,6.42-1.14,11.95-8.31,15.43-3.86,1.87-7.9,1.15-11.92-.2-4.13-1.4-4.53-3.86-6.5-7.21-7.14,5.64-19.85,4.54-26.3-1.88-2.29-2.28-4.71-6.1-4.98-9.39-.16-1.97.86-2.41-.39-4.09-.55-.75-3.31-1.56-4.21-2.11-3.49-2.15-6.66-5.34-6.99-9.63-.39-5.13,2.22-7.67,5.98-10.11-4.69,4.18-6.96,10.44-2.25,16.08Z" style="fill: #cfd8dc; stroke-width: 0px;"/>
                  <path d="m253.48,46.85c-.47.32-.92.67-1.35,1.03-2.59-1.81-2.59-4.34-1.46-6.73-.14,2.05.64,4.03,2.81,5.7Z" style="fill: #cfd8dc; stroke-width: 0px;"/>
                  <path d="m252.14,47.87c.43-.36.88-.71,1.35-1.03-2.17-1.67-2.95-3.65-2.81-5.7,1.29-2.74,4.07-5.3,6.12-6.38,1.6-.84,3.32-1.53,5.1-2.09-1.49,1.73-2.87,3.55-4.17,5.21-2.07,3.44-4.11,10.43,1.03,11.75-4.28,1.86-4.99,7.25-2.27,11.15,3.33,4.15,8.25,9.64,13.87,6.18-3.65,5.65,2.99,10.39,7.28,12.09,3.68,1.45,9.31,1.55,12.23-2.26,2.84,5.37,10.31,6.2,15.08,3.11,3.05-2.34,5.12-5.78,3.87-9.81,1.6,1.34,2.95,3.29,4.91,1.94,5.24-3.09,7.49-9.22,7.04-15.27.26.47.51.94.75,1.42,1.12,2.29,2.06,4.97,2.55,7.71.09,2.55-.35,5.08-1.64,7.45-1.82,2.82-5.37,2.84-8.2,1.02.16,8.57-5.92,16.8-14.86,16.11-4.16-.23-10.3-2.65-10.44-7.67-3.65,5.65-9.65,4.7-14.8,3.37-8.22-2.53-13.88-9.73-17.22-17.43-.5-2.32-5.52-2.18-7.49-4.37-4.71-5.65-2.44-11.9,2.25-16.08.19-.12.37-.24.56-.36-.03-.02-.05-.04-.08-.06Z" style="fill: #eceff1; stroke-width: 0px;"/>
                  <path d="m274.98,51.76c8.21,6.59,19.42,12.27,30.22,11.32,5.49-.48,12.57-4.12,13.12-10.04-8.67-11.53-25.06-18.8-37.89-21.36-3.43-.69-7.11-.86-10.75-.54-4.24,5.98.35,16.66,5.29,20.63Z" style="fill: #ffccbc; stroke-width: 0px;"/>
                  <path d="m286.86,54.89c9.69-3.87,12.29,12.3,19.85,12.57-3.81,4.74-9.7,4.88-15.43,3.13-3.49-1.06-7.6-4.4-8.18-8.16-5.19,1-9.68.87-13.83-2.96-2.9-2.68-5.78-7.74-4.36-11.81-.31.89,2.83,2.55,3.5,2.72,1.36.34,2.69-.07,4-.4,3.29-.83,15.35-1.61,14.45,4.91Z" style="fill: #cfd8dc; mix-blend-mode: multiply; stroke-width: 0px;"/>
                  <path d="m287.58,53.05c9.69-3.87,12.29,12.3,19.85,12.57-3.81,4.74-9.7,4.88-15.43,3.13-3.49-1.06-7.6-4.4-8.18-8.16-5.19,1-9.68.87-13.83-2.96-2.9-2.68-5.78-7.74-4.36-11.81-.31.89,2.83,2.55,3.5,2.72,1.36.34,2.69-.07,4-.4,3.29-.83,15.35-1.61,14.45,4.91Z" style="fill: #eceff1; stroke-width: 0px;"/>
                  <path d="m265.62,45.82c-1.41,4.07,1.46,9.13,4.37,11.81,4.14,3.82,8.63,3.96,13.82,2.96.58,3.76,4.69,7.09,8.18,8.15,5.73,1.75,11.63,1.61,15.43-3.13-1.55-.05-2.9-.78-4.14-1.88-4.79-4.19-8.01-13.77-15.71-10.7.89-6.52-11.16-5.74-14.45-4.91-.88.23-1.77.48-2.67.52-.44.02-.88,0-1.33-.12-.67-.16-3.81-1.83-3.5-2.71Z" style="fill: #eceff1; stroke-width: 0px;"/>
                  <path d="m270.46,48.66c.77,1.19,1.67,2.25,2.57,3.08,4.14,3.82,8.63,3.96,13.82,2.96.58,3.76,4.69,7.09,8.18,8.16,2.8.86,5.65,1.26,8.26.89-4.79-4.19-8.01-13.77-15.71-10.7.89-6.52-11.16-5.74-14.45-4.91-.88.23-1.77.48-2.67.52Z" style="fill: #fafafa; stroke-width: 0px;"/>
                  <path d="m290.75,47.26c-1.57-1.36-4.34-1.43-5.54.47-1.38,2.19.3,5.34,2.64,6,1.65.47,3.63-.07,4.27-1.75.67-1.75-.07-3.6-1.37-4.72Z" style="fill: #ffccbc; stroke-width: 0px;"/>
                  <path d="m290.75,47.26c-1.57-1.36-4.34-1.43-5.54.47-1.38,2.19.3,5.34,2.64,6,1.65.47,3.63-.07,4.27-1.75.67-1.75-.07-3.6-1.37-4.72Z" style="fill: url(#radial-gradient); opacity: .55; stroke-width: 0px;"/>
                  <path d="m304.3,50.4c.82.32,1.23,1.27.91,2.09s-1.27,1.23-2.09.91c-.82-.32-1.23-1.27-.9-2.09.32-.81,1.27-1.23,2.08-.91Z" style="stroke-width: 0px;"/>
                  <path d="m279.4,39.87c.81.32,1.23,1.27.91,2.09-.32.82-1.27,1.23-2.09.91-.81-.32-1.23-1.27-.9-2.08.32-.82,1.27-1.23,2.08-.91Z" style="stroke-width: 0px;"/>
                </g>
                <path d="m346.77,57.08c-.82,2.09.2,4.45,2.29,5.27,2.09.82,4.45-.2,5.27-2.29.82-2.09-.2-4.45-2.29-5.27-2.09-.82-4.45.2-5.27,2.29Z" style="fill: #d7ccc8; stroke-width: 0px;"/>
                <path d="m348.35,56.4c-.58,1.46.14,3.11,1.6,3.69,1.46.58,3.11-.14,3.69-1.6.58-1.46-.14-3.11-1.6-3.69s-3.11.14-3.69,1.6Z" style="fill: #efebe9; stroke-width: 0px;"/>
              </g>
            </g>
            <path d="m266.92,111c2.67.43,5.15,1.02,7.1,1.91-2.35-1.24-4.74-1.83-7.1-1.91Z" style="fill: none; stroke-width: 0px;"/>
            <path d="m356.46,147.52c-17.56,6.56-36.55,10.89-59.79,14.79-17.93,3.01-48.53,5.74-57.45-15.63-5.99-14.35,8.05-36.19,23.39-35.67-19.62-3.14-39.35-5.62-59.17-7.03-16.89-1.21-41.91-.42-51.49,16.6-3.69,6.56-3.66,14.21-1.97,21.36,1.84,7.81,5.54,17.99,13.44,21.08,16.73,6.56,38.18,5.84,55.94,6.95,33.75,2.11,67.76,1.97,101.01-4.71,12.15-2.45,24.16-5.58,35.96-9.39.05-2.78.09-5.56.14-8.34Z" style="fill: #c4b69c; stroke-width: 0px;"/>
            <path d="m275.21,167.12c-20.28,0-33.23-6.48-38.61-19.36-3.27-7.83-1.55-18.13,4.49-26.88,5.68-8.23,13.77-13,21.61-12.71,1.56.05,2.79,1.36,2.73,2.92-.05,1.56-1.37,2.78-2.92,2.73-5.9-.2-12.18,3.64-16.76,10.27-4.88,7.07-6.42,15.5-3.92,21.48,5.97,14.3,24.27,18.99,54.37,13.93,25.53-4.28,43.26-8.66,59.27-14.65,1.46-.54,3.09.2,3.64,1.66.55,1.46-.2,3.09-1.66,3.64-16.36,6.12-34.4,10.58-60.31,14.93-8.07,1.35-15.38,2.03-21.92,2.03Z" style="fill: #f4511e; stroke-width: 0px;"/>
            <g>
              <path d="m359.01,177.64c-.49-1.56-6.44-1.74-7.95-1.18-16.01,5.98-33.73,10.36-59.27,14.65-26.66,4.48-40.08,1.08-47.86-9.63-.52-.72-5.34-.91-6.23-.91h0c-2.29,0-3.66,2.6-2.32,4.47,6.55,9.1,18.39,13.68,35.42,13.68,6.55,0,13.86-.68,21.92-2.03,25.84-4.33,43.84-8.78,60.17-14.87,1.44-.54,6.58-2.72,6.11-4.18Z" style="fill: #546e7a; stroke-width: 0px;"/>
              <path d="m359.29,178.26c-.49-1.56-2.18-2.36-3.69-1.8-16.01,5.98-33.73,10.36-59.27,14.65-26.66,4.48-44.05,1.3-51.83-9.4-.52-.72-1.37-1.13-2.26-1.13h0c-2.29,0-3.66,2.6-2.32,4.47,6.55,9.1,18.39,13.68,35.42,13.68,6.55,0,13.86-.68,21.92-2.03,25.84-4.33,43.84-8.78,60.17-14.87,1.44-.54,2.31-2.1,1.85-3.56Z" style="fill: #90a4ae; stroke-width: 0px;"/>
            </g>
          </g>
          <g>
            <path d="m26.2,197.61c-.11.17-.22.33-.33.49,0,1.56-.27,3.4-.27,4.96,3.61.95,7.05.38,10.31-1.46.36-.84.5-1.61.53-2.41-3.41.23-6.82-.83-10.24-1.59Z" style="fill: #4e352e; stroke-width: 0px;"/>
            <path d="m41.03,147.39l-18.64-6.61c.36,5.63,1.16,11.23,2.4,16.73.76,3.36,1.67,6.68,2.29,10.06,1.61,8.76,1.21,17.75.8,26.64-.06,1.21-.97,2.34-1.69,3.39,3.41.75,6.82,1.81,10.24,1.59.03-.95-.11-1.96-.3-3.23-.46-.55-1.56-2.53-2.02-3.08,1.16-7.43,2.42-14.55,4.44-21.79,2.17-7.76-6.84-13.18,2.48-23.7Z" style="fill: #8d6560; stroke-width: 0px;"/>
            <path d="m94.3,141.94c1.24-6.68.72-14.37-4.12-19.13l-21.42,4.88c-5.33,6.22-7.35,15.12-5.22,23.03,2.13,7.91,8.35,14.59,16.08,17.29.09,9.63-7.9,17.79-9.73,27.03,3.24-.22,6.64.04,10,.06,0-.24,0-.48,0-.72-.46-.65-1.05-1.27-1.7-1.86,3.9-7.48,8.39-16.13,11.97-24.06.56-1.24.64-2.66.14-3.92-.32-.81-.36-1.81-.31-2.7.41-6.78,3.08-13.21,4.31-19.9Z" style="fill: #8d6560; stroke-width: 0px;"/>
            <path d="m69.89,195.04s-.01.07-.02.1c.06,1.55.14,3.09.24,4.64,3.32.55,6.62.34,9.9-.19-.08-1.49-.11-2.99-.12-4.49-3.36-.02-6.76-.28-10-.06Z" style="fill: #4e352e; stroke-width: 0px;"/>
            <path d="m66.97,163.88c-9.01,3.76-19.09,4.91-28.72,3.26-5.72-.98-11.37-2.98-15.86-6.66-5.56-4.56-8.91-11.4-10.31-18.45-1.39-7.05-.96-14.34.02-21.46,5.73-2.48,10.98-5.65,16.42-8.72,6.23-3.53,12.47-7.52,19.55-8.59,3.6,5.11,10.02,8.44,16.16,9.64s12.49.61,18.62-.59c3.22-.63,6.44-1.43,9.72-1.46,9.78-.11,18.71,6.79,20.79,16.37,1.26,5.82.37,12.8-2.05,18.23-3.05,6.83-9.29,9.87-16.3,11.3-8.63,1.77-19.92,3.73-28.05,7.13Z" style="fill: #8d6560; stroke-width: 0px;"/>
            <path d="m50.32,160.77c-10.98.84-18.58-6.76-26.18-14.36-2.53-1.69-6.76-3.38-7.6,0-1.18,2.36-1.12,5.53-.41,8.38,5.66,6.44,13.67,10.91,22.12,12.35,9.62,1.64,19.71.5,28.72-3.26,6.42-2.68,14.8-4.47,22.3-5.97-12.41-1.76-26.14,1.32-38.94,2.86Z" style="fill: #ffe0b2; stroke-width: 0px;"/>
            <path d="m94.57,115.77c4.2-1.26,8.57-.92,12.46.63-3.88-3.51-9.03-5.61-14.46-5.55-3.28.04-6.5.84-9.72,1.46-6.13,1.2-12.49,1.79-18.62.59s-12.56-4.53-16.16-9.64c-.42.06-.86.09-1.33.08,7.48,19.19,29.89,17.15,47.84,12.43Z" style="fill: #a67771; stroke-width: 0px;"/>
            <path d="m107.03,116.4c-3.89-1.55-8.26-1.89-12.46-.63-17.95,4.72-40.36,6.76-47.84-12.43-7.56-.1-21.78-8.51-27.17-6.17-7.87,12.18-14.36,48.39-3.43,57.62-.71-2.85-.77-6.03.41-8.38.84-3.38,5.07-1.69,7.6,0,7.6,7.6,15.2,15.2,26.18,14.36,12.8-1.54,26.54-4.62,38.94-2.86,2-.4,3.94-.78,5.76-1.16,7-1.44,13.25-4.48,16.3-11.3,2.42-5.42,3.32-12.4,2.05-18.23-.93-4.27-3.22-8-6.33-10.82Z" style="fill: #8d6560; stroke-width: 0px;"/>
            <g>
              <path d="m36.57,114.77c5.72,1.76,11.64,2.36,17.32,1.79.34-.92.6-1.91.78-2.89.2-1.09.29-2.15.27-2.99-.06-2.84-5.4-1.24-7.43-1.46-1.69-.18-3.35-.58-5-1.01-8.3-2.17-16.58-5.31-22.96-11.04-.31-.28-.7-.59-1.1-.49-.19.05-.34.17-.49.29-.75.63-1.51,1.26-2.26,1.88-.09.07-.17.15-.26.22,3.75,8.47,12.85,12.93,21.13,15.69Z" style="fill: #e53935; stroke-width: 0px;"/>
              <path d="m36.57,114.77c-8.28-2.76-17.38-7.22-21.13-15.69-.05.04-.1.09-.16.13-.19.16-.38.32-.48.55-.13.3-.59,3.49-.51,3.81,1.74,7.33,6.7,11.23,13.05,15.29,6.34,4.06,14.6,5.21,21.64,2.53,1.31-.5,2.62-1.16,3.54-2.22.21-.24.4-.53.59-.84.3-.51.56-1.12.8-1.76-5.68.56-11.6-.03-17.32-1.79Z" style="fill: #ef5350; stroke-width: 0px;"/>
              <path d="m48.01,48.54c-1.98-1.91.08-5.05,2.6-4.46,6.39,1.5,10.89,6.57,13.86,12.24.36-.59.71-1.18,1.04-1.8.46-.88.86-1.78,1.21-2.7-.07-.08-.14-.16-.19-.25-1.55-2.43-2.78-4.79-4.76-6.94-2.02-2.19-4.55-3.61-6.17-6.15-1.2-1.88.34-4.8,2.66-4.63,4.19.31,7.93,3.63,10.42,7.66.02-4.33-.91-8.65-2.82-12.54-2.15-4.37,4.41-8.22,6.56-3.83,4.92,10.07,5.25,22.17-.21,32.12-2.33,4.25-5.61,7.92-9.44,10.86-1.95,1.5-4.02,2.58-6.3,3.48-1.92.75-4.78,1.97-6.8,1.25-.92-.32-1.69-1.53-1-2.47,1.11-1.51,2.99-2.11,4.54-3.11,1.68-1.08,3.24-2.3,4.79-3.57.98-.8,1.9-1.66,2.77-2.57-3.47-4.98-8.37-8.41-12.72-12.6Z" style="fill: #4e352e; stroke-width: 0px;"/>
              <g>
                <path d="m49.58,66.35c5.84-3.57,13.01-3.53,19.61-3.02.46.04.94.08,1.35.3,2.07,1.08-.83,4.82-1.64,5.97-2.89,4.11-6.79,7.34-11.19,9.72" style="fill: #8d6560; stroke-width: 0px;"/>
                <path d="m52.55,68.27c3.53-2.15,7.86-2.13,11.84-1.82.28.02.57.05.82.18,1.25.65-.5,2.91-.99,3.61-1.75,2.48-4.1,4.43-6.76,5.87l-4.91-7.83Z" style="fill: #ffe0b2; stroke-width: 0px;"/>
              </g>
              <path d="m28.17,48.54c1.98-1.91-.08-5.05-2.6-4.46-6.39,1.5-10.89,6.57-13.86,12.24-.36-.59-.71-1.18-1.04-1.8-.46-.88-.86-1.78-1.21-2.7.07-.08.14-.16.19-.25,1.55-2.43,2.78-4.79,4.76-6.94,2.02-2.19,4.55-3.61,6.17-6.15,1.2-1.88-.34-4.8-2.66-4.63-4.19.31-7.93,3.63-10.42,7.66-.02-4.33.91-8.65,2.82-12.54,2.15-4.37-4.41-8.22-6.56-3.83-4.92,10.07-5.25,22.17.21,32.12,2.33,4.25,5.61,7.92,9.44,10.86,1.95,1.5,4.02,2.58,6.3,3.48,1.92.75,4.78,1.97,6.8,1.25.92-.32,1.69-1.53,1-2.47-1.11-1.51-2.99-2.11-4.54-3.11-1.68-1.08-3.24-2.3-4.79-3.57-.98-.8-1.9-1.66-2.77-2.57,3.47-4.98,8.37-8.41,12.72-12.6Z" style="fill: #4e352e; stroke-width: 0px;"/>
              <path d="m17.14,82.3c.61-6.6,2.81-12.34,10.05-15.91,6-2.95,13.02-3.1,19.64-2.14,2.52.36,5.06.89,7.29,2.11,6.13,3.34,8.28,10.83,10.01,17.59,3.02.58,7.48,1.37,9.3,3.86,1.82,2.48,1.63,6.77.63,9.68-4.97,14.39-35.42,15.11-47.39,9.21-6.45-3.18-9.6-8.6-9.71-15.7-.05-2.98-.07-5.91.19-8.69Z" style="fill: #8d6560; stroke-width: 0px;"/>
              <path d="m44.5,94.55c8.08-6.28,17.67-8.01,27.5-8.07.56.38,1.05.81,1.42,1.32,1.82,2.48,1.63,6.77.63,9.68-3.29,9.54-17.78,13.07-30.65,12.65-3.56-5.2-4.92-11.23,1.1-15.58Z" style="fill: #ffe0b2; stroke-width: 0px;"/>
              <g>
                <path d="m68.07,94.17c-1.28,2.28-2.92,4.4-4.91,6.11-1.04.89-2.24,1.38-3.57.78-1.2-.54-2.04-1.63-2.83-2.64-.4-.51-1.1.21-.71.71.9,1.14,1.85,2.3,3.22,2.88s2.72.36,3.9-.47c2.41-1.69,4.35-4.32,5.77-6.86.32-.56-.55-1.07-.86-.5h0Z" style="fill: #212121; stroke-width: 0px;"/>
                <path d="m66.94,101.05c-.33.6-.97.97-1.64.94-.61-.03-1.26-.48-1.5-1.06-.1-.25-.33-.43-.62-.35-.24.07-.45.36-.35.62.4,1,1.31,1.71,2.4,1.79s2.07-.53,2.57-1.43c.31-.56-.55-1.07-.86-.5h0Z" style="fill: #212121; stroke-width: 0px;"/>
              </g>
              <g>
                <path d="m27.77,68.22c-5.84-3.57-13.01-3.53-19.61-3.02-.46.04-.94.08-1.35.3-2.07,1.08.83,4.82,1.64,5.97,2.89,4.11,6.79,7.34,11.19,9.72" style="fill: #8d6560; stroke-width: 0px;"/>
                <path d="m24.8,70.14c-3.53-2.15-7.86-2.13-11.84-1.82-.28.02-.57.05-.82.18-1.25.65.5,2.91.99,3.61,1.75,2.48,4.1,4.43,6.76,5.87l4.91-7.83Z" style="fill: #ffe0b2; stroke-width: 0px;"/>
              </g>
            </g>
            <path d="m107.02,119.08c.63-2.07,3.13-3.08,5.26-2.76,2.14.32,3.97,1.64,5.7,2.93s3.52,2.65,5.63,3.09c2.79.58,5.86-.7,7.43-3.08.6,5.43-2.32,11.09-7.1,13.73-4.78,2.65-11.13,2.12-15.41-1.27" style="fill: #8d6560; stroke-width: 0px;"/>
            <path d="m96.16,196.69c.21,1.53.44,3.07.69,4.59,3.35.22,6.62-.31,9.84-1.15-.18-1.19-.33-2.38-.46-3.57-3.29-.04-6.57-.32-9.98-.63-.03.26-.06.51-.09.77Z" style="fill: #4e352e; stroke-width: 0px;"/>
            <path d="m88.47,129.67c-4.7,6.71-5.84,15.77-2.94,23.43,2.89,7.66,9.73,13.71,17.69,15.63,1.01,9.35-5.79,18.05-6.97,27.18,3.41.31,6.69.59,9.98.63-.06-.53-.12-1.06-.17-1.59-.52-.6-1.16-1.16-1.87-1.69,3.13-7.75,6.71-16.71,9.49-24.89.48-1.42.34-2.96-.27-4.34-.33-.74-.44-1.64-.47-2.45-.25-6.79,1.77-13.45,2.35-20.22.58-6.77-.68-14.37-5.97-18.64" style="fill: #8d6560; stroke-width: 0px;"/>
            <path d="m33.07,140.78c5.79,9.3,3,15.15,4.24,20.66.76,3.36,2.09,6.68,2.71,10.06,1.61,8.76,1.21,17.75.8,26.64-.06,1.4-1.28,2.69-2.02,3.88,0,.16-.01.32-.02.48,3.63.32,7.08.45,10.58.5.02-.92-.12-1.9-.3-3.12-.46-.55-1.56-2.53-2.02-3.08,1.16-7.43,2.42-14.55,4.44-21.79,2.17-7.76-1.67-11.37,3.09-26.25" style="fill: #8d6560; stroke-width: 0px;"/>
            <path d="m38.78,202.51c-.04,1.45-.26,3.07-.26,4.48,3.61.95,7.05.38,10.31-1.46.38-.88.52-1.68.54-2.52-3.5-.05-6.96-.18-10.58-.5Z" style="fill: #4e352e; stroke-width: 0px;"/>
            <path d="m49.48,82.33s-.01-.04-.02-.06c-.25-.82-1.05-1.53-1.95-1.49-.91.04-1.68.6-1.95,1.49,0,.02-.01.04-.02.06-.39,1.28.68,2.59,1.97,2.59s2.36-1.31,1.97-2.59Z" style="fill: #231f20; stroke-width: 0px;"/>
            <path d="m59.05,79.83c-.94,0-1.83.82-1.79,1.79.04.97.79,1.79,1.79,1.79.94,0,1.83-.82,1.79-1.79-.04-.97-.79-1.79-1.79-1.79Z" style="fill: #231f20; stroke-width: 0px;"/>
            <path d="m74.62,90.42c-.65,1.42-2.06,2.86-3.51,3.73-.73.44-1.56.83-2.41.75-.82-.07-1.55-.57-2.17-1.12-1.39-1.23-2.46-2.81-3.1-4.55-.31-.84-.44-1.96.29-2.49.28-.2.63-.27.98-.32,2.3-.36,4.65-.4,6.97-.1,3.36.43,3.8,2.24,2.95,4.1Z" style="fill: #d32f2f; stroke-width: 0px;"/>
            <path d="m27.84,127.35c-.28-.89-1.23-1.38-2.12-1.1-.89.28-1.38,1.23-1.1,2.12.28.89,1.23,1.38,2.12,1.1.89-.28,1.38-1.23,1.1-2.12Z" style="fill: #ffa726; stroke-width: 0px;"/>
            <path d="m27.51,127.98c-.2-.62-.86-.97-1.48-.77-.62.2-.97.86-.77,1.48.2.62.86.97,1.48.77s.97-.86.77-1.48Z" style="fill: #ffcc80; stroke-width: 0px;"/>
            <g>
              <path d="m31.74,126.76c-2.97.91-6.53.51-9.36-.84.16-.58.32-1.16.51-1.73.3-.12.63-.18.89-.35.64-.41.65-.91.8-1.61.28-1.26.64-2.64,1.46-3.68.6-.77,1.87-1.49,2.83-.92,1.55.92,1,3.86,1.19,5.33.06.48.16,1.14.55,1.48.28.23.62.21.92.41,0,0,.02.01.02.02.03.22.06.44.08.66.04.41.07.82.09,1.23Z" style="fill: #ffb74d; stroke-width: 0px;"/>
              <path d="m30.21,125.91c-1.13-2.24-1.19-3.86-1.09-6.24-.1-.88-.99-1.92-2.03-1.98-.42.21-.79.53-1.05.86-.82,1.04-1.18,2.41-1.46,3.68-.16.7-.17,1.2-.8,1.61-.26.17-.59.24-.89.35-.18.57-.35,1.15-.51,1.73,2.32,1.11,5.15,1.58,7.73,1.2.12-.44.19-.85.09-1.21Z" style="fill: #ffb74d; stroke-width: 0px;"/>
              <path d="m31.65,125.53c-.03-.22-.05-.44-.08-.66,0,0-.02-.01-.02-.02-.31-.2-.65-.18-.92-.41-.39-.34-.49-.99-.55-1.48-.18-1.48.36-4.42-1.19-5.33-.56-.33-1.21-.23-1.78.06,1.04.05,1.93,1.09,2.03,1.98-.1,2.38-.04,4,1.09,6.24.1.37.03.77-.09,1.21.56-.08,1.1-.2,1.63-.36-.02-.41-.05-.82-.09-1.23Z" style="fill: #ffcc80; stroke-width: 0px;"/>
              <path d="m31.65,125.53c-.81.23-1.73.23-2.52.16-1.98-.18-4.1-.09-5.84-1.21-.06-.04-.01-.12.05-.1,2.46.88,5.56,1.1,8.19.46,0,0,.02.01.02.02.03.22.06.44.08.66Z" style="fill: #ffa726; stroke-width: 0px;"/>
            </g>
          </g>
          <path d="m162.79,170.04c-6.48,0-12.88-.43-19.15-1.29-29.45-4.07-51.97-14.06-66.93-29.7-3.26-3.4-6.55-10.25-9.45-16.29-1.42-2.95-3.2-6.66-4.51-8.71,2.81,7.62,9.34,31.63-9.44,54.16-.35.42-.98.48-1.41.13-.42-.35-.48-.98-.13-1.41,21.73-26.07,8.3-54.18,8.17-54.46l-.24-.49.29-.47c.53-.87,1.24-.96,1.62-.95,1.97.1,3.81,3.75,7.46,11.33,2.84,5.91,6.06,12.6,9.09,15.77,14.64,15.3,36.77,25.1,65.76,29.1,29.02,4.01,60.91-1.5,89.81-15.5,11.75-5.69,21.27-12.12,29.11-19.65.56-.54,1.11-1.16,1.64-1.76,1.84-2.08,3.93-4.43,7.21-4.07.55.06.94.56.88,1.11-.06.55-.55.93-1.11.88-2.26-.27-3.75,1.44-5.49,3.41-.56.63-1.14,1.29-1.75,1.88-7.99,7.68-17.68,14.22-29.62,20.01-23.01,11.15-47.91,16.98-71.8,16.98Z" style="fill: #263238; stroke-width: 0px;"/>
        </g>
      </g>
    </g>
  </g>
</svg>